<svg width="500" height="500" viewBox="0 0 500 500" fill="none" xmlns="http://www.w3.org/2000/svg">
<path fill-rule="evenodd" clip-rule="evenodd" d="M250 500C388.071 500 500 388.071 500 250C500 111.929 388.071 0 250 0C111.929 0 0 111.929 0 250C0 388.071 111.929 500 250 500ZM250 491C383.101 491 491 383.101 491 250C491 116.899 383.101 9 250 9C116.899 9 9 116.899 9 250C9 383.101 116.899 491 250 491Z" fill="#FB7135"/>
<path d="M341.244 170.762L310.75 232H341.125L364.75 194.722L378.25 232H412L384.641 171.563C380.75 162.967 372.188 157.444 362.752 157.444C353.637 157.444 345.307 162.602 341.244 170.762Z" fill="#FB7135"/>
<path d="M287.125 245.556H256.75L281.832 284.732C285.13 289.884 290.825 293 296.942 293C303.392 293 309.345 289.538 312.535 283.932L334.375 245.556H307.375L297.25 265.889L287.125 245.556Z" fill="#FB7135" fill-opacity="0.8"/>
<path d="M250 232H283.75L234.651 121.072C231.671 114.341 225.003 110 217.642 110C210.586 110 204.137 113.993 200.991 120.309L169 184.556L158.872 168.284C154.676 161.543 147.298 157.444 139.357 157.444C130.637 157.444 122.668 162.379 118.781 170.185L88 232H118.375L142 184.556L169 245.556L216.25 140.5L250 232Z" fill="#FB7135"/>
<path d="M85.5411 295H81.4461V279.95L74.4111 295H70.5611L63.0711 279.635V295H58.9761V270.465H63.1411L72.4511 289.54L81.3761 270.465H85.5411V295Z" fill="black"/>
<path d="M102.202 270.185C118.267 270.185 118.302 295.315 102.202 295.315C86.0316 295.315 86.0666 270.185 102.202 270.185ZM102.202 291.36C112.807 291.36 112.807 274.175 102.202 274.175C91.6316 274.175 91.5966 291.36 102.202 291.36Z" fill="black"/>
<path d="M128.132 295.35C123.092 295.35 118.962 292.2 118.962 287.16V270.5H123.057V287.16C123.267 289.995 125.542 291.255 128.132 291.255C130.687 291.255 133.242 289.89 133.242 287.16V270.5H137.337V287.16C137.337 292.375 133.347 295.35 128.132 295.35Z" fill="black"/>
<path d="M163.259 295H159.129L146.949 277.57V295H142.854V270.5H146.984L159.199 287.93V270.5H163.259V295Z" fill="black"/>
<path d="M181.115 274.245H175.97V295H171.91V274.245H166.765V270.5H181.115V274.245Z" fill="black"/>
<path d="M70.3125 377.255C72.5525 377.255 74.6175 376.345 76.0875 374.875L78.9575 377.78C76.7525 379.985 73.7075 381.35 70.3125 381.35C63.5575 381.35 58.0275 376.45 58.0275 368.75C58.0275 361.365 63.1375 356.15 70.3125 356.15C73.7075 356.15 76.7525 357.515 78.9575 359.755L76.0875 362.625C74.6175 361.155 72.5525 360.245 70.3125 360.245C65.2725 360.245 62.1925 363.815 62.1925 368.75C62.1925 374 65.7975 377.255 70.3125 377.255Z" fill="black"/>
<path d="M87.2643 376.905H96.3293V381H83.1693V356.5H87.2643V376.905Z" fill="black"/>
<path d="M100.808 381V356.5H104.903V381H100.808Z" fill="black"/>
<path d="M137.043 381H132.948V365.95L125.913 381H122.063L114.573 365.635V381H110.478V356.465H114.643L123.953 375.54L132.878 356.465H137.043V381Z" fill="black"/>
<path d="M154.789 368.785C159.409 369.73 159.234 373.965 159.234 373.965C159.234 380.685 152.374 381 150.729 381H142.574V356.535H150.729C150.729 356.535 158.884 356.325 158.884 363.395C158.884 366.615 156.889 368.26 154.789 368.785ZM146.634 366.72H150.729C150.729 366.72 154.789 366.72 154.789 363.675C154.789 360.385 150.729 360.595 150.729 360.595H146.634V366.72ZM150.729 376.94C152.444 376.94 155.139 376.52 155.139 373.86C155.139 370.57 150.729 370.815 150.729 370.815H146.634V376.94H150.729Z" fill="black"/>
<path d="M72.8155 332.7L69.3355 338.22V345H59.4355V303.78H69.3355V319.74L79.4156 303.78H91.1756L78.6955 323.46L92.3755 345H80.6755L72.8155 332.7Z" fill="black"/>
<path d="M105.254 345H95.3535V303.78H105.254V345Z" fill="black"/>
<path d="M138.832 335.4V345H111.232V303.78H121.132V335.4H138.832Z" fill="black"/>
<path d="M153.535 345H143.635V303.78H153.535V345Z" fill="black"/>
<path d="M202.714 345H192.814V324.06L181.114 345.48L169.414 324.06V345H159.514V303.78H170.134L181.114 323.82L192.034 303.78H202.714V345Z" fill="black"/>
<path d="M235.372 342.42H217.612L216.292 345H205.852L226.852 303.78L247.852 345H236.752L235.372 342.42ZM230.512 332.82L226.492 323.04L222.532 332.82H230.512Z" fill="black"/>
<path d="M287.099 345H276.299L260.879 320.76V345H250.979V303.78H261.839L277.199 327.96V303.78H287.099V345Z" fill="black"/>
<path d="M321.007 332.46C321.007 332.54 320.987 332.6 320.947 332.64C320.947 332.64 320.947 332.68 320.947 332.76C320.907 334.64 320.387 336.44 319.387 338.16C318.467 339.8 317.267 341.18 315.787 342.3C314.467 343.34 313.007 344.14 311.407 344.7C309.807 345.22 308.127 345.48 306.367 345.48C306.167 345.48 305.987 345.46 305.827 345.42C305.707 345.42 305.547 345.42 305.347 345.42C303.427 345.3 301.587 344.88 299.827 344.16C298.107 343.4 296.587 342.38 295.267 341.1C293.867 339.78 292.847 338.3 292.207 336.66C292.047 336.38 291.907 336 291.787 335.52L300.247 331.86C300.367 332.34 300.587 332.82 300.907 333.3C301.267 333.74 301.687 334.16 302.167 334.56C302.647 334.92 303.207 335.22 303.847 335.46C304.487 335.7 305.167 335.82 305.887 335.82H306.307C307.627 335.82 308.747 335.54 309.667 334.98C310.627 334.38 311.107 333.44 311.107 332.16V303.78H321.007V332.46Z" fill="black"/>
<path d="M348.165 342.42H330.405L329.085 345H318.645L339.645 303.78L360.645 345H349.545L348.165 342.42ZM343.305 332.82L339.285 323.04L335.325 332.82H343.305Z" fill="black"/>
<path d="M391.791 327.24C391.151 327.84 390.491 328.38 389.811 328.86C389.131 329.3 388.391 329.68 387.591 330L395.331 345.06H384.171L377.031 331.14H373.671V345H363.771V303.78H382.491C384.251 303.86 385.911 304.22 387.471 304.86C389.071 305.5 390.491 306.44 391.731 307.68C394.451 310.4 395.811 313.66 395.811 317.46C395.811 319.3 395.451 321.06 394.731 322.74C394.051 324.42 393.071 325.92 391.791 327.24ZM373.671 321.54H382.011C383.091 321.54 384.011 321.14 384.771 320.34C385.531 319.5 385.911 318.54 385.911 317.46C385.911 316.38 385.531 315.44 384.771 314.64C384.011 313.8 383.091 313.38 382.011 313.38H373.671V321.54Z" fill="black"/>
<path d="M442.13 324.42C442.13 327.34 441.57 330.08 440.45 332.64C439.37 335.2 437.87 337.44 435.95 339.36C434.03 341.24 431.79 342.74 429.23 343.86C426.67 344.94 423.93 345.48 421.01 345.48C418.09 345.48 415.35 344.94 412.79 343.86C410.23 342.74 407.99 341.24 406.07 339.36C404.15 337.44 402.63 335.2 401.51 332.64C400.43 330.08 399.89 327.34 399.89 324.42C399.89 321.5 400.43 318.76 401.51 316.2C402.63 313.64 404.15 311.4 406.07 309.48C407.99 307.56 410.23 306.06 412.79 304.98C415.35 303.86 418.09 303.3 421.01 303.3C423.93 303.3 426.67 303.86 429.23 304.98C431.79 306.06 434.03 307.56 435.95 309.48C437.87 311.4 439.37 313.64 440.45 316.2C441.57 318.76 442.13 321.5 442.13 324.42ZM429.17 332.52C430.25 331.44 431.03 330.2 431.51 328.8C431.99 327.4 432.23 325.94 432.23 324.42C432.23 322.86 431.99 321.38 431.51 319.98C431.03 318.58 430.25 317.34 429.17 316.26C428.05 315.18 426.79 314.36 425.39 313.8C423.99 313.2 422.53 312.9 421.01 312.9C419.49 312.9 418.03 313.2 416.63 313.8C415.23 314.36 413.97 315.18 412.85 316.26C411.77 317.34 410.99 318.58 410.51 319.98C410.03 321.38 409.79 322.86 409.79 324.42C409.79 325.94 410.03 327.4 410.51 328.8C410.99 330.2 411.77 331.44 412.85 332.52C413.97 333.6 415.23 334.44 416.63 335.04C418.03 335.6 419.49 335.88 421.01 335.88C422.53 335.88 423.99 335.6 425.39 335.04C426.79 334.44 428.05 333.6 429.17 332.52Z" fill="black"/>
</svg>
