<svg width="1333" height="187" viewBox="0 0 1333 187" fill="none" xmlns="http://www.w3.org/2000/svg">
<path d="M0 45C52.6667 90 190.6 180 321 180C484 180 821.5 3.00004 986.5 45C1151.5 87 1242.5 73.0001 1282 45" stroke="#FB7135" stroke-width="3" stroke-dasharray="23 23"/>
<path d="M330.227 149.555L319.855 182.03L325.64 183.46L338.048 182.707L337.447 161.736L330.227 149.555Z" fill="#2F2F2F"/>
<path d="M300.909 139.178C300.139 139.756 298.277 146.398 293.765 155.492C289.253 164.586 283.463 176.621 283.463 176.621C283.463 176.621 284.14 177.596 292.709 180.683C301.277 183.771 308.357 185.125 308.357 185.125C308.357 185.125 327.443 155.416 327.595 154.745C327.746 154.068 330.793 141.682 330.793 141.682C330.793 141.682 318.647 140.836 313.382 140.387C308.117 139.937 301.808 138.501 300.909 139.178Z" fill="#F19F40"/>
<path d="M344.486 182.645L350.895 181.553C350.895 181.553 344.982 169.185 341.749 162.946C338.515 156.706 332.935 143.463 332.41 142.488C331.885 141.513 329.702 141.058 328.727 142.791C327.752 144.525 319.616 162.38 318.087 165.234C316.365 168.444 307.808 184.256 307.732 185.084C307.656 185.913 322.137 184.542 322.137 184.542L325.873 173.539L330.385 153.992L331.138 154.144L334.745 170.084L344.486 182.645Z" fill="#EC5F32"/>
<path d="M326.351 184.02C326.223 184.779 322.406 185.439 320.235 185.485C318.057 185.538 314.164 185.69 313.709 185.182C313.254 184.674 318.612 179.923 322.056 173.701C325.493 167.479 327.519 163.183 328.021 161.461C328.529 159.74 329.538 154.586 329.941 153.722C330.344 152.858 331.155 153.016 331.406 153.821C331.657 154.632 334.289 164.596 335.2 166.971C336.11 169.347 339.852 174.302 340.967 175.872C342.081 177.442 347.591 181.622 347.691 182.024C347.79 182.427 344.282 183.659 341.895 183.933C340.184 184.125 336.198 183.828 335.894 183.32C335.591 182.812 333.531 169.347 332.772 164.847C332.013 160.347 330.7 154.329 330.7 154.329C330.7 154.329 327.717 168.792 327.309 172.639C326.906 176.485 326.55 182.806 326.351 184.02ZM282.5 170.829C282.5 170.829 282.926 170.386 283.732 170.333C284.537 170.287 285.249 170.777 285.249 170.777L285.769 178.26C285.769 178.26 285.15 178.802 284.391 178.802C283.632 178.802 282.92 178.405 282.92 178.405L282.5 170.829ZM304.248 178.353C304.248 178.353 304.907 177.798 305.917 177.798C306.927 177.798 307.686 178.306 307.686 178.306L307.738 185.894C307.738 185.894 306.927 186.349 306.32 186.349C305.713 186.349 304.75 186.046 304.75 186.046L304.248 178.353ZM349.506 175.02C349.506 175.02 350.049 174.39 351.012 174.436C351.975 174.483 352.5 174.816 352.5 174.816L352.045 182.602C352.045 182.602 351.689 183.11 350.831 183.11C349.973 183.11 349.214 182.707 349.214 182.707L349.506 175.02Z" fill="#9C2D1B"/>
<path d="M776.727 36.5547L766.355 69.0303L772.14 70.4603L784.548 69.7074L783.947 48.736L776.727 36.5547Z" fill="#2F2F2F"/>
<path d="M747.409 26.1785C746.639 26.7563 744.777 33.3985 740.265 42.4921C735.753 51.5858 729.963 63.6211 729.963 63.6211C729.963 63.6211 730.64 64.5958 739.209 67.6835C747.777 70.7711 754.857 72.1252 754.857 72.1252C754.857 72.1252 773.943 42.4163 774.095 41.745C774.246 41.068 777.293 28.6824 777.293 28.6824C777.293 28.6824 765.147 27.8361 759.882 27.3867C754.618 26.9372 748.308 25.5014 747.409 26.1785Z" fill="#F19F40"/>
<path d="M790.986 69.6447L797.395 68.5532C797.395 68.5532 791.482 56.1852 788.249 49.9457C785.015 43.7062 779.435 30.4627 778.91 29.4879C778.385 28.5132 776.202 28.0579 775.227 29.7914C774.252 31.5249 766.116 49.3795 764.587 52.2337C762.865 55.4439 754.308 71.2556 754.232 72.0844C754.156 72.9133 768.637 71.5416 768.637 71.5416L772.373 60.5394L776.885 40.9921L777.638 41.1439L781.245 57.084L790.986 69.6447Z" fill="#EC5F32"/>
<path d="M772.851 71.0204C772.723 71.7792 768.906 72.4387 766.735 72.4854C764.557 72.538 760.664 72.6897 760.209 72.1819C759.754 71.6741 765.112 66.923 768.556 60.7011C771.993 54.4791 774.019 50.1833 774.521 48.4614C775.029 46.7396 776.038 41.5857 776.441 40.7219C776.844 39.8581 777.655 40.0157 777.906 40.8211C778.157 41.6324 780.789 51.5958 781.7 53.9713C782.61 56.3469 786.352 61.3022 787.467 62.8723C788.581 64.4424 794.091 68.6215 794.191 69.0242C794.29 69.427 790.782 70.6585 788.395 70.9329C786.684 71.1255 782.698 70.8278 782.394 70.32C782.091 69.8122 780.031 56.3469 779.272 51.8467C778.513 47.3466 777.2 41.3289 777.2 41.3289C777.2 41.3289 774.217 55.7924 773.809 59.6388C773.406 63.4852 773.05 69.8064 772.851 71.0204ZM729 57.8294C729 57.8294 729.426 57.3858 730.232 57.3333C731.037 57.2866 731.749 57.7769 731.749 57.7769L732.269 65.2596C732.269 65.2596 731.65 65.8024 730.891 65.8024C730.132 65.8024 729.42 65.4055 729.42 65.4055L729 57.8294ZM750.748 65.3529C750.748 65.3529 751.407 64.7985 752.417 64.7985C753.427 64.7985 754.186 65.3062 754.186 65.3062L754.238 72.894C754.238 72.894 753.427 73.3493 752.82 73.3493C752.213 73.3493 751.25 73.0458 751.25 73.0458L750.748 65.3529ZM796.006 62.0202C796.006 62.0202 796.549 61.3898 797.512 61.4365C798.475 61.4832 799 61.8159 799 61.8159L798.545 69.6021C798.545 69.6021 798.189 70.1099 797.331 70.1099C796.473 70.1099 795.714 69.7071 795.714 69.7071L796.006 62.0202Z" fill="#9C2D1B"/>
<path d="M1290.72 2.77783C1290.35 2.77783 1290 2.92416 1289.74 3.18463C1289.48 3.4451 1289.33 3.79836 1289.33 4.16672V45.8334C1289.33 46.2017 1289.48 46.555 1289.74 46.8155C1290 47.0759 1290.35 47.2223 1290.72 47.2223C1291.09 47.2223 1291.44 47.0759 1291.7 46.8155C1291.96 46.555 1292.11 46.2017 1292.11 45.8334V4.16672C1292.11 3.79836 1291.96 3.4451 1291.7 3.18463C1291.44 2.92416 1291.09 2.77783 1290.72 2.77783Z" fill="#2C8A35"/>
<path d="M1324.86 5.30561C1324.65 5.18371 1324.41 5.11953 1324.17 5.11953C1323.92 5.11953 1323.68 5.18371 1323.47 5.30561C1320.78 6.43743 1317.88 6.9865 1314.96 6.91672C1312.44 6.73266 1309.99 6.02795 1307.76 4.84728C1305.62 3.6891 1303.26 2.98466 1300.83 2.77783C1298.83 2.78002 1296.85 3.18135 1295 3.95839V27.7778C1296.81 26.7878 1298.84 26.2717 1300.9 26.2778C1302.95 26.4805 1304.93 27.0846 1306.74 28.0556C1309.32 29.4047 1312.16 30.1905 1315.07 30.3612C1318.41 30.4305 1321.72 29.7816 1324.79 28.4584C1325.02 28.343 1325.21 28.1664 1325.35 27.9482C1325.48 27.73 1325.55 27.4788 1325.56 27.2223V6.48617C1325.55 6.24615 1325.49 6.01124 1325.36 5.80433C1325.24 5.59743 1325.07 5.4256 1324.86 5.30561Z" fill="#2C8A35"/>
</svg>
